<svg fill="none" height="24" viewBox="0 0 24 24" width="24" xmlns="http://www.w3.org/2000/svg"><path clip-rule="evenodd" d="m18.9922 8.07411c-.2239.22801-.4499.42917-.6547.59777-.1974-.16289-.4148-.35962-.6297-.58414-.7225-.75474-1.2078-1.59988-1.2078-2.40024 0-1.09612.8653-1.9375 1.875-1.9375s1.875.84138 1.875 1.9375c0 .77475-.4986 1.61326-1.2578 2.38661zm2.7578-2.38661c0 2.75-3.375 4.8125-3.375 4.8125-.1687 0-3.375-2.0625-3.375-4.8125 0-1.89848 1.511-3.4375 3.375-3.4375s3.375 1.53902 3.375 3.4375zm-18 3.3125c0 1.2426 1.00736 2.25 2.25 2.25h12c2.0711 0 3.75 1.6789 3.75 3.75s-1.6789 3.75-3.75 3.75h-8.25v-1.5h8.25c1.2426 0 2.25-1.0074 2.25-2.25s-1.0074-2.25-2.25-2.25h-12c-2.07107 0-3.75-1.6789-3.75-3.75 0-2.07107 1.67893-3.75 3.75-3.75h8.25v1.5h-8.25c-1.24264 0-2.25 1.00736-2.25 2.25zm2.49215 10.3241c-.22386.228-.44981.4292-.65463.5978-.19741-.1629-.41482-.3596-.62975-.5842-.72249-.7547-1.20777-1.5998-1.20777-2.4002 0-1.0961.86529-1.9375 1.875-1.9375s1.875.8414 1.875 1.9375c0 .7748-.49855 1.6133-1.25785 2.3866zm2.75785-2.3866c0 2.75-3.375 4.8125-3.375 4.8125-.16875 0-3.375-2.0625-3.375-4.8125 0-1.8985 1.51104-3.4375 3.375-3.4375s3.375 1.539 3.375 3.4375zm-2.25-.0625c0 .6213-.50368 1.125-1.125 1.125s-1.125-.5037-1.125-1.125.50368-1.125 1.125-1.125 1.125.5037 1.125 1.125zm11.625-10.125c.6213 0 1.125-.50368 1.125-1.125s-.5037-1.125-1.125-1.125-1.125.50368-1.125 1.125.5037 1.125 1.125 1.125z" fill="#080341" fill-rule="evenodd"/></svg>