<svg height="100" width="100" xmlns="http://www.w3.org/2000/svg">
	<path
		d="m12.550781 15c-6.889711 0-12.55078123 5.66107-12.550781 12.550781-.0000002 6.016649 4.3174351 11.094762 10 12.285157v20.427734c-5.6825649 1.190773-10.0000002 6.270461-10 12.287109-.00000023 6.889712 5.6610701 12.548829 12.550781 12.548828 6.046137 0 11.08986-4.374009 12.240235-10.099609h50.455078c1.151527 5.731839 6.252533 10.09961 12.304687 10.099609 6.651027.000001 12.105047-5.287903 12.478519-11.851562a3.5 3.5 0 0 0 .07031-.697266 3.5 3.5 0 0 0 -.07031-.697265c-.326152-5.736437-4.534286-10.497656-10.0293-11.607422v-20.392578c5.494878-1.109435 9.702909-5.869254 10.0293-11.605469a3.5 3.5 0 0 0 .07031-.697266 3.5 3.5 0 0 0 -.07031-.697265c-.373199-6.563912-5.827309-11.853516-12.478519-11.853516-6.016648 0-11.096336 4.317435-12.287109 10h-50.494141c-1.189299-5.676041-6.20828-9.999999-12.21875-10zm0 7c3.10663 0 5.548828 2.444151 5.548828 5.550781s-2.442198 5.548828-5.548828 5.548828-5.5507811-2.442197-5.550781-5.548828c-.0000001-3.10663 2.444151-5.550781 5.550781-5.550781zm75 0c3.106631 0 5.548828 2.444151 5.548828 5.550781 0 3.106631-2.442197 5.548828-5.548828 5.548828-3.10663 0-5.550781-2.442197-5.550781-5.548828 0-3.10663 2.444151-5.550781 5.550781-5.550781zm-63.333984 10h51.621094c1.265772 3.294311 3.880811 5.931586 7.162109 7.224609v21.650391c-3.247797 1.280195-5.844805 3.877203-7.125 7.125h-51.699219c-1.284905-3.276469-3.897985-5.894371-7.175781-7.162109v-21.576172c3.311799-1.280563 5.94656-3.937907 7.216797-7.261719zm-11.666016 35c3.10663 0 5.548828 2.444151 5.548828 5.550781s-2.442198 5.548828-5.548828 5.548828-5.5507811-2.442197-5.550781-5.548828c-.0000001-3.10663 2.444151-5.550781 5.550781-5.550781zm75 0c3.106631 0 5.548828 2.444151 5.548828 5.550781 0 3.106631-2.442197 5.548828-5.548828 5.548828-3.10663 0-5.550781-2.442197-5.550781-5.548828 0-3.10663 2.444151-5.550781 5.550781-5.550781z"
		fill="#000000" />
</svg>